<svg xmlns="http://www.w3.org/2000/svg" width="480" height="310" viewBox="0 0 480 310">
<rect width="480" height="310" fill="#0d1117" rx="12"/>
<rect width="480" height="310" fill="none" stroke="#30363d" stroke-width="1" rx="12"/>
<text x="24" y="44" font-family="monospace" font-size="11" fill="#8b949e">total commits</text>
<text x="24" y="76" font-family="monospace" font-size="32" font-weight="bold" fill="#e6edf3">14</text>
<line x1="24" y1="92" x2="456" y2="92" stroke="#30363d" stroke-width="1"/>
<text x="24" y="114" font-family="monospace" font-size="11" fill="#8b949e">languages</text>
<rect x="24.0" y="124" width="244.9" height="6" fill="#DA5B0B" rx="0"/>
<rect x="268.9" y="124" width="138.7" height="6" fill="#e16737" rx="0"/>
<rect x="407.6" y="124" width="44.1" height="6" fill="#3178c6" rx="0"/>
<rect x="451.7" y="124" width="2.6" height="6" fill="#a270ba" rx="0"/>
<rect x="454.3" y="124" width="1.3" height="6" fill="#3572A5" rx="0"/>
<rect x="455.6" y="124" width="0.0" height="6" fill="#f1e05a" rx="0"/>
<rect x="24" y="124" width="4" height="6" fill="#DA5B0B" rx="3"/>
<rect x="452.0" y="124" width="4" height="6" fill="#f1e05a" rx="3"/>
<circle cx="29" cy="150" r="4" fill="#DA5B0B"/>
<text x="38" y="154" font-family="monospace" font-size="11" fill="#e6edf3">Jupyter Notebook</text>
<text x="150" y="154" font-family="monospace" font-size="11" fill="#8b949e"> 56.7%</text>
<circle cx="184" cy="150" r="4" fill="#e16737"/>
<text x="193" y="154" font-family="monospace" font-size="11" fill="#e6edf3">MATLAB</text>
<text x="235" y="154" font-family="monospace" font-size="11" fill="#8b949e"> 32.1%</text>
<circle cx="339" cy="150" r="4" fill="#3178c6"/>
<text x="348" y="154" font-family="monospace" font-size="11" fill="#e6edf3">TypeScript</text>
<text x="418" y="154" font-family="monospace" font-size="11" fill="#8b949e"> 10.2%</text>
<circle cx="29" cy="168" r="4" fill="#a270ba"/>
<text x="38" y="172" font-family="monospace" font-size="11" fill="#e6edf3">Julia</text>
<text x="73" y="172" font-family="monospace" font-size="11" fill="#8b949e"> 0.6%</text>
<circle cx="184" cy="168" r="4" fill="#3572A5"/>
<text x="193" y="172" font-family="monospace" font-size="11" fill="#e6edf3">Python</text>
<text x="235" y="172" font-family="monospace" font-size="11" fill="#8b949e"> 0.3%</text>
<circle cx="339" cy="168" r="4" fill="#f1e05a"/>
<text x="348" y="172" font-family="monospace" font-size="11" fill="#e6edf3">JavaScript</text>
<text x="418" y="172" font-family="monospace" font-size="11" fill="#8b949e"> 0.0%</text>
<line x1="24" y1="186" x2="456" y2="186" stroke="#30363d" stroke-width="1"/>
<text x="24" y="204" font-family="monospace" font-size="11" fill="#8b949e">contributions — last 12 months</text>
<rect x="24" y="214" width="7" height="7" fill="#161b22" rx="2"/>
<rect x="24" y="223" width="7" height="7" fill="#161b22" rx="2"/>
<rect x="24" y="232" width="7" height="7" fill="#161b22" rx="2"/>
<rect x="24" y="241" width="7" height="7" fill="#161b22" rx="2"/>
<rect x="24" y="250" width="7" height="7" fill="#161b22" rx="2"/>
<rect x="24" y="259" width="7" height="7" fill="#161b22" rx="2"/>
<rect x="33" y="214" width="7" height="7" fill="#161b22" rx="2"/>
<rect x="33" y="223" width="7" height="7" fill="#161b22" rx="2"/>
<rect x="33" y="232" width="7" height="7" fill="#161b22" rx="2"/>
<rect x="33" y="241" width="7" height="7" fill="#161b22" rx="2"/>
<rect x="33" y="250" width="7" height="7" fill="#161b22" rx="2"/>
<rect x="33" y="259" width="7" height="7" fill="#161b22" rx="2"/>
<rect x="33" y="268" width="7" height="7" fill="#161b22" rx="2"/>
<rect x="42" y="214" width="7" height="7" fill="#161b22" rx="2"/>
<rect x="42" y="223" width="7" height="7" fill="#161b22" rx="2"/>
<rect x="42" y="232" width="7" height="7" fill="#161b22" rx="2"/>
<rect x="42" y="241" width="7" height="7" fill="#161b22" rx="2"/>
<rect x="42" y="250" width="7" height="7" fill="#161b22" rx="2"/>
<rect x="42" y="259" width="7" height="7" fill="#161b22" rx="2"/>
<rect x="42" y="268" width="7" height="7" fill="#161b22" rx="2"/>
<rect x="51" y="214" width="7" height="7" fill="#161b22" rx="2"/>
<rect x="51" y="223" width="7" height="7" fill="#161b22" rx="2"/>
<rect x="51" y="232" width="7" height="7" fill="#161b22" rx="2"/>
<rect x="51" y="241" width="7" height="7" fill="#161b22" rx="2"/>
<rect x="51" y="250" width="7" height="7" fill="#161b22" rx="2"/>
<rect x="51" y="259" width="7" height="7" fill="#161b22" rx="2"/>
<rect x="51" y="268" width="7" height="7" fill="#161b22" rx="2"/>
<rect x="60" y="214" width="7" height="7" fill="#161b22" rx="2"/>
<rect x="60" y="223" width="7" height="7" fill="#161b22" rx="2"/>
<rect x="60" y="232" width="7" height="7" fill="#161b22" rx="2"/>
<rect x="60" y="241" width="7" height="7" fill="#161b22" rx="2"/>
<rect x="60" y="250" width="7" height="7" fill="#161b22" rx="2"/>
<rect x="60" y="259" width="7" height="7" fill="#161b22" rx="2"/>
<rect x="60" y="268" width="7" height="7" fill="#161b22" rx="2"/>
<rect x="69" y="214" width="7" height="7" fill="#161b22" rx="2"/>
<rect x="69" y="223" width="7" height="7" fill="#161b22" rx="2"/>
<rect x="69" y="232" width="7" height="7" fill="#161b22" rx="2"/>
<rect x="69" y="241" width="7" height="7" fill="#161b22" rx="2"/>
<rect x="69" y="250" width="7" height="7" fill="#161b22" rx="2"/>
<rect x="69" y="259" width="7" height="7" fill="#161b22" rx="2"/>
<rect x="69" y="268" width="7" height="7" fill="#161b22" rx="2"/>
<rect x="78" y="214" width="7" height="7" fill="#161b22" rx="2"/>
<rect x="78" y="223" width="7" height="7" fill="#161b22" rx="2"/>
<rect x="78" y="232" width="7" height="7" fill="#161b22" rx="2"/>
<rect x="78" y="241" width="7" height="7" fill="#161b22" rx="2"/>
<rect x="78" y="250" width="7" height="7" fill="#161b22" rx="2"/>
<rect x="78" y="259" width="7" height="7" fill="#161b22" rx="2"/>
<rect x="78" y="268" width="7" height="7" fill="#161b22" rx="2"/>
<rect x="87" y="214" width="7" height="7" fill="#161b22" rx="2"/>
<rect x="87" y="223" width="7" height="7" fill="#161b22" rx="2"/>
<rect x="87" y="232" width="7" height="7" fill="#161b22" rx="2"/>
<rect x="87" y="241" width="7" height="7" fill="#161b22" rx="2"/>
<rect x="87" y="250" width="7" height="7" fill="#161b22" rx="2"/>
<rect x="87" y="259" width="7" height="7" fill="#161b22" rx="2"/>
<rect x="87" y="268" width="7" height="7" fill="#161b22" rx="2"/>
<rect x="96" y="214" width="7" height="7" fill="#161b22" rx="2"/>
<rect x="96" y="223" width="7" height="7" fill="#161b22" rx="2"/>
<rect x="96" y="232" width="7" height="7" fill="#161b22" rx="2"/>
<rect x="96" y="241" width="7" height="7" fill="#161b22" rx="2"/>
<rect x="96" y="250" width="7" height="7" fill="#161b22" rx="2"/>
<rect x="96" y="259" width="7" height="7" fill="#161b22" rx="2"/>
<rect x="96" y="268" width="7" height="7" fill="#161b22" rx="2"/>
<rect x="105" y="214" width="7" height="7" fill="#161b22" rx="2"/>
<rect x="105" y="223" width="7" height="7" fill="#161b22" rx="2"/>
<rect x="105" y="232" width="7" height="7" fill="#161b22" rx="2"/>
<rect x="105" y="241" width="7" height="7" fill="#161b22" rx="2"/>
<rect x="105" y="250" width="7" height="7" fill="#161b22" rx="2"/>
<rect x="105" y="259" width="7" height="7" fill="#161b22" rx="2"/>
<rect x="105" y="268" width="7" height="7" fill="#161b22" rx="2"/>
<rect x="114" y="214" width="7" height="7" fill="#161b22" rx="2"/>
<rect x="114" y="223" width="7" height="7" fill="#161b22" rx="2"/>
<rect x="114" y="232" width="7" height="7" fill="#161b22" rx="2"/>
<rect x="114" y="241" width="7" height="7" fill="#161b22" rx="2"/>
<rect x="114" y="250" width="7" height="7" fill="#161b22" rx="2"/>
<rect x="114" y="259" width="7" height="7" fill="#161b22" rx="2"/>
<rect x="114" y="268" width="7" height="7" fill="#161b22" rx="2"/>
<rect x="123" y="214" width="7" height="7" fill="#161b22" rx="2"/>
<rect x="123" y="223" width="7" height="7" fill="#161b22" rx="2"/>
<rect x="123" y="232" width="7" height="7" fill="#161b22" rx="2"/>
<rect x="123" y="241" width="7" height="7" fill="#161b22" rx="2"/>
<rect x="123" y="250" width="7" height="7" fill="#161b22" rx="2"/>
<rect x="123" y="259" width="7" height="7" fill="#161b22" rx="2"/>
<rect x="123" y="268" width="7" height="7" fill="#161b22" rx="2"/>
<rect x="132" y="214" width="7" height="7" fill="#161b22" rx="2"/>
<rect x="132" y="223" width="7" height="7" fill="#161b22" rx="2"/>
<rect x="132" y="232" width="7" height="7" fill="#161b22" rx="2"/>
<rect x="132" y="241" width="7" height="7" fill="#161b22" rx="2"/>
<rect x="132" y="250" width="7" height="7" fill="#161b22" rx="2"/>
<rect x="132" y="259" width="7" height="7" fill="#161b22" rx="2"/>
<rect x="132" y="268" width="7" height="7" fill="#161b22" rx="2"/>
<rect x="141" y="214" width="7" height="7" fill="#161b22" rx="2"/>
<rect x="141" y="223" width="7" height="7" fill="#161b22" rx="2"/>
<rect x="141" y="232" width="7" height="7" fill="#161b22" rx="2"/>
<rect x="141" y="241" width="7" height="7" fill="#161b22" rx="2"/>
<rect x="141" y="250" width="7" height="7" fill="#161b22" rx="2"/>
<rect x="141" y="259" width="7" height="7" fill="#161b22" rx="2"/>
<rect x="141" y="268" width="7" height="7" fill="#161b22" rx="2"/>
<rect x="150" y="214" width="7" height="7" fill="#161b22" rx="2"/>
<rect x="150" y="223" width="7" height="7" fill="#161b22" rx="2"/>
<rect x="150" y="232" width="7" height="7" fill="#161b22" rx="2"/>
<rect x="150" y="241" width="7" height="7" fill="#161b22" rx="2"/>
<rect x="150" y="250" width="7" height="7" fill="#161b22" rx="2"/>
<rect x="150" y="259" width="7" height="7" fill="#161b22" rx="2"/>
<rect x="150" y="268" width="7" height="7" fill="#161b22" rx="2"/>
<rect x="159" y="214" width="7" height="7" fill="#161b22" rx="2"/>
<rect x="159" y="223" width="7" height="7" fill="#161b22" rx="2"/>
<rect x="159" y="232" width="7" height="7" fill="#161b22" rx="2"/>
<rect x="159" y="241" width="7" height="7" fill="#161b22" rx="2"/>
<rect x="159" y="250" width="7" height="7" fill="#161b22" rx="2"/>
<rect x="159" y="259" width="7" height="7" fill="#161b22" rx="2"/>
<rect x="159" y="268" width="7" height="7" fill="#161b22" rx="2"/>
<rect x="168" y="214" width="7" height="7" fill="#161b22" rx="2"/>
<rect x="168" y="223" width="7" height="7" fill="#161b22" rx="2"/>
<rect x="168" y="232" width="7" height="7" fill="#161b22" rx="2"/>
<rect x="168" y="241" width="7" height="7" fill="#161b22" rx="2"/>
<rect x="168" y="250" width="7" height="7" fill="#161b22" rx="2"/>
<rect x="168" y="259" width="7" height="7" fill="#161b22" rx="2"/>
<rect x="168" y="268" width="7" height="7" fill="#161b22" rx="2"/>
<rect x="177" y="214" width="7" height="7" fill="#161b22" rx="2"/>
<rect x="177" y="223" width="7" height="7" fill="#161b22" rx="2"/>
<rect x="177" y="232" width="7" height="7" fill="#161b22" rx="2"/>
<rect x="177" y="241" width="7" height="7" fill="#161b22" rx="2"/>
<rect x="177" y="250" width="7" height="7" fill="#161b22" rx="2"/>
<rect x="177" y="259" width="7" height="7" fill="#161b22" rx="2"/>
<rect x="177" y="268" width="7" height="7" fill="#161b22" rx="2"/>
<rect x="186" y="214" width="7" height="7" fill="#161b22" rx="2"/>
<rect x="186" y="223" width="7" height="7" fill="#161b22" rx="2"/>
<rect x="186" y="232" width="7" height="7" fill="#161b22" rx="2"/>
<rect x="186" y="241" width="7" height="7" fill="#161b22" rx="2"/>
<rect x="186" y="250" width="7" height="7" fill="#161b22" rx="2"/>
<rect x="186" y="259" width="7" height="7" fill="#161b22" rx="2"/>
<rect x="186" y="268" width="7" height="7" fill="#161b22" rx="2"/>
<rect x="195" y="214" width="7" height="7" fill="#161b22" rx="2"/>
<rect x="195" y="223" width="7" height="7" fill="#161b22" rx="2"/>
<rect x="195" y="232" width="7" height="7" fill="#161b22" rx="2"/>
<rect x="195" y="241" width="7" height="7" fill="#161b22" rx="2"/>
<rect x="195" y="250" width="7" height="7" fill="#161b22" rx="2"/>
<rect x="195" y="259" width="7" height="7" fill="#161b22" rx="2"/>
<rect x="195" y="268" width="7" height="7" fill="#161b22" rx="2"/>
<rect x="204" y="214" width="7" height="7" fill="#161b22" rx="2"/>
<rect x="204" y="223" width="7" height="7" fill="#161b22" rx="2"/>
<rect x="204" y="232" width="7" height="7" fill="#161b22" rx="2"/>
<rect x="204" y="241" width="7" height="7" fill="#161b22" rx="2"/>
<rect x="204" y="250" width="7" height="7" fill="#161b22" rx="2"/>
<rect x="204" y="259" width="7" height="7" fill="#161b22" rx="2"/>
<rect x="204" y="268" width="7" height="7" fill="#161b22" rx="2"/>
<rect x="213" y="214" width="7" height="7" fill="#161b22" rx="2"/>
<rect x="213" y="223" width="7" height="7" fill="#161b22" rx="2"/>
<rect x="213" y="232" width="7" height="7" fill="#161b22" rx="2"/>
<rect x="213" y="241" width="7" height="7" fill="#161b22" rx="2"/>
<rect x="213" y="250" width="7" height="7" fill="#161b22" rx="2"/>
<rect x="213" y="259" width="7" height="7" fill="#161b22" rx="2"/>
<rect x="213" y="268" width="7" height="7" fill="#161b22" rx="2"/>
<rect x="222" y="214" width="7" height="7" fill="#161b22" rx="2"/>
<rect x="222" y="223" width="7" height="7" fill="#161b22" rx="2"/>
<rect x="222" y="232" width="7" height="7" fill="#161b22" rx="2"/>
<rect x="222" y="241" width="7" height="7" fill="#161b22" rx="2"/>
<rect x="222" y="250" width="7" height="7" fill="#161b22" rx="2"/>
<rect x="222" y="259" width="7" height="7" fill="#161b22" rx="2"/>
<rect x="222" y="268" width="7" height="7" fill="#161b22" rx="2"/>
<rect x="231" y="214" width="7" height="7" fill="#161b22" rx="2"/>
<rect x="231" y="223" width="7" height="7" fill="#161b22" rx="2"/>
<rect x="231" y="232" width="7" height="7" fill="#161b22" rx="2"/>
<rect x="231" y="241" width="7" height="7" fill="#161b22" rx="2"/>
<rect x="231" y="250" width="7" height="7" fill="#161b22" rx="2"/>
<rect x="231" y="259" width="7" height="7" fill="#161b22" rx="2"/>
<rect x="231" y="268" width="7" height="7" fill="#161b22" rx="2"/>
<rect x="240" y="214" width="7" height="7" fill="#161b22" rx="2"/>
<rect x="240" y="223" width="7" height="7" fill="#161b22" rx="2"/>
<rect x="240" y="232" width="7" height="7" fill="#161b22" rx="2"/>
<rect x="240" y="241" width="7" height="7" fill="#161b22" rx="2"/>
<rect x="240" y="250" width="7" height="7" fill="#161b22" rx="2"/>
<rect x="240" y="259" width="7" height="7" fill="#161b22" rx="2"/>
<rect x="240" y="268" width="7" height="7" fill="#161b22" rx="2"/>
<rect x="249" y="214" width="7" height="7" fill="#161b22" rx="2"/>
<rect x="249" y="223" width="7" height="7" fill="#161b22" rx="2"/>
<rect x="249" y="232" width="7" height="7" fill="#161b22" rx="2"/>
<rect x="249" y="241" width="7" height="7" fill="#161b22" rx="2"/>
<rect x="249" y="250" width="7" height="7" fill="#161b22" rx="2"/>
<rect x="249" y="259" width="7" height="7" fill="#161b22" rx="2"/>
<rect x="249" y="268" width="7" height="7" fill="#161b22" rx="2"/>
<rect x="258" y="214" width="7" height="7" fill="#161b22" rx="2"/>
<rect x="258" y="223" width="7" height="7" fill="#161b22" rx="2"/>
<rect x="258" y="232" width="7" height="7" fill="#161b22" rx="2"/>
<rect x="258" y="241" width="7" height="7" fill="#161b22" rx="2"/>
<rect x="258" y="250" width="7" height="7" fill="#161b22" rx="2"/>
<rect x="258" y="259" width="7" height="7" fill="#161b22" rx="2"/>
<rect x="258" y="268" width="7" height="7" fill="#161b22" rx="2"/>
<rect x="267" y="214" width="7" height="7" fill="#161b22" rx="2"/>
<rect x="267" y="223" width="7" height="7" fill="#161b22" rx="2"/>
<rect x="267" y="232" width="7" height="7" fill="#161b22" rx="2"/>
<rect x="267" y="241" width="7" height="7" fill="#161b22" rx="2"/>
<rect x="267" y="250" width="7" height="7" fill="#161b22" rx="2"/>
<rect x="267" y="259" width="7" height="7" fill="#161b22" rx="2"/>
<rect x="267" y="268" width="7" height="7" fill="#161b22" rx="2"/>
<rect x="276" y="214" width="7" height="7" fill="#161b22" rx="2"/>
<rect x="276" y="223" width="7" height="7" fill="#161b22" rx="2"/>
<rect x="276" y="232" width="7" height="7" fill="#161b22" rx="2"/>
<rect x="276" y="241" width="7" height="7" fill="#161b22" rx="2"/>
<rect x="276" y="250" width="7" height="7" fill="#161b22" rx="2"/>
<rect x="276" y="259" width="7" height="7" fill="#161b22" rx="2"/>
<rect x="276" y="268" width="7" height="7" fill="#161b22" rx="2"/>
<rect x="285" y="214" width="7" height="7" fill="#161b22" rx="2"/>
<rect x="285" y="223" width="7" height="7" fill="#161b22" rx="2"/>
<rect x="285" y="232" width="7" height="7" fill="#161b22" rx="2"/>
<rect x="285" y="241" width="7" height="7" fill="#161b22" rx="2"/>
<rect x="285" y="250" width="7" height="7" fill="#161b22" rx="2"/>
<rect x="285" y="259" width="7" height="7" fill="#161b22" rx="2"/>
<rect x="285" y="268" width="7" height="7" fill="#161b22" rx="2"/>
<rect x="294" y="214" width="7" height="7" fill="#161b22" rx="2"/>
<rect x="294" y="223" width="7" height="7" fill="#161b22" rx="2"/>
<rect x="294" y="232" width="7" height="7" fill="#161b22" rx="2"/>
<rect x="294" y="241" width="7" height="7" fill="#161b22" rx="2"/>
<rect x="294" y="250" width="7" height="7" fill="#161b22" rx="2"/>
<rect x="294" y="259" width="7" height="7" fill="#161b22" rx="2"/>
<rect x="294" y="268" width="7" height="7" fill="#161b22" rx="2"/>
<rect x="303" y="214" width="7" height="7" fill="#161b22" rx="2"/>
<rect x="303" y="223" width="7" height="7" fill="#161b22" rx="2"/>
<rect x="303" y="232" width="7" height="7" fill="#161b22" rx="2"/>
<rect x="303" y="241" width="7" height="7" fill="#161b22" rx="2"/>
<rect x="303" y="250" width="7" height="7" fill="#161b22" rx="2"/>
<rect x="303" y="259" width="7" height="7" fill="#161b22" rx="2"/>
<rect x="303" y="268" width="7" height="7" fill="#161b22" rx="2"/>
<rect x="312" y="214" width="7" height="7" fill="#161b22" rx="2"/>
<rect x="312" y="223" width="7" height="7" fill="#161b22" rx="2"/>
<rect x="312" y="232" width="7" height="7" fill="#161b22" rx="2"/>
<rect x="312" y="241" width="7" height="7" fill="#161b22" rx="2"/>
<rect x="312" y="250" width="7" height="7" fill="#161b22" rx="2"/>
<rect x="312" y="259" width="7" height="7" fill="#161b22" rx="2"/>
<rect x="312" y="268" width="7" height="7" fill="#161b22" rx="2"/>
<rect x="321" y="214" width="7" height="7" fill="#161b22" rx="2"/>
<rect x="321" y="223" width="7" height="7" fill="#161b22" rx="2"/>
<rect x="321" y="232" width="7" height="7" fill="#161b22" rx="2"/>
<rect x="321" y="241" width="7" height="7" fill="#161b22" rx="2"/>
<rect x="321" y="250" width="7" height="7" fill="#161b22" rx="2"/>
<rect x="321" y="259" width="7" height="7" fill="#161b22" rx="2"/>
<rect x="321" y="268" width="7" height="7" fill="#161b22" rx="2"/>
<rect x="330" y="214" width="7" height="7" fill="#161b22" rx="2"/>
<rect x="330" y="223" width="7" height="7" fill="#161b22" rx="2"/>
<rect x="330" y="232" width="7" height="7" fill="#161b22" rx="2"/>
<rect x="330" y="241" width="7" height="7" fill="#161b22" rx="2"/>
<rect x="330" y="250" width="7" height="7" fill="#161b22" rx="2"/>
<rect x="330" y="259" width="7" height="7" fill="#161b22" rx="2"/>
<rect x="330" y="268" width="7" height="7" fill="#161b22" rx="2"/>
<rect x="339" y="214" width="7" height="7" fill="#161b22" rx="2"/>
<rect x="339" y="223" width="7" height="7" fill="#161b22" rx="2"/>
<rect x="339" y="232" width="7" height="7" fill="#161b22" rx="2"/>
<rect x="339" y="241" width="7" height="7" fill="#161b22" rx="2"/>
<rect x="339" y="250" width="7" height="7" fill="#161b22" rx="2"/>
<rect x="339" y="259" width="7" height="7" fill="#161b22" rx="2"/>
<rect x="339" y="268" width="7" height="7" fill="#161b22" rx="2"/>
<rect x="348" y="214" width="7" height="7" fill="#161b22" rx="2"/>
<rect x="348" y="223" width="7" height="7" fill="#161b22" rx="2"/>
<rect x="348" y="232" width="7" height="7" fill="#161b22" rx="2"/>
<rect x="348" y="241" width="7" height="7" fill="#161b22" rx="2"/>
<rect x="348" y="250" width="7" height="7" fill="#161b22" rx="2"/>
<rect x="348" y="259" width="7" height="7" fill="#161b22" rx="2"/>
<rect x="348" y="268" width="7" height="7" fill="#161b22" rx="2"/>
<rect x="357" y="214" width="7" height="7" fill="#161b22" rx="2"/>
<rect x="357" y="223" width="7" height="7" fill="#161b22" rx="2"/>
<rect x="357" y="232" width="7" height="7" fill="#161b22" rx="2"/>
<rect x="357" y="241" width="7" height="7" fill="#161b22" rx="2"/>
<rect x="357" y="250" width="7" height="7" fill="#161b22" rx="2"/>
<rect x="357" y="259" width="7" height="7" fill="#161b22" rx="2"/>
<rect x="357" y="268" width="7" height="7" fill="#161b22" rx="2"/>
<rect x="366" y="214" width="7" height="7" fill="#161b22" rx="2"/>
<rect x="366" y="223" width="7" height="7" fill="#161b22" rx="2"/>
<rect x="366" y="232" width="7" height="7" fill="#161b22" rx="2"/>
<rect x="366" y="241" width="7" height="7" fill="#161b22" rx="2"/>
<rect x="366" y="250" width="7" height="7" fill="#161b22" rx="2"/>
<rect x="366" y="259" width="7" height="7" fill="#161b22" rx="2"/>
<rect x="366" y="268" width="7" height="7" fill="#161b22" rx="2"/>
<rect x="375" y="214" width="7" height="7" fill="#161b22" rx="2"/>
<rect x="375" y="223" width="7" height="7" fill="#161b22" rx="2"/>
<rect x="375" y="232" width="7" height="7" fill="#161b22" rx="2"/>
<rect x="375" y="241" width="7" height="7" fill="#161b22" rx="2"/>
<rect x="375" y="250" width="7" height="7" fill="#161b22" rx="2"/>
<rect x="375" y="259" width="7" height="7" fill="#161b22" rx="2"/>
<rect x="375" y="268" width="7" height="7" fill="#161b22" rx="2"/>
<rect x="384" y="214" width="7" height="7" fill="#161b22" rx="2"/>
<rect x="384" y="223" width="7" height="7" fill="#161b22" rx="2"/>
<rect x="384" y="232" width="7" height="7" fill="#161b22" rx="2"/>
<rect x="384" y="241" width="7" height="7" fill="#161b22" rx="2"/>
<rect x="384" y="250" width="7" height="7" fill="#161b22" rx="2"/>
<rect x="384" y="259" width="7" height="7" fill="#161b22" rx="2"/>
<rect x="384" y="268" width="7" height="7" fill="#161b22" rx="2"/>
<rect x="393" y="214" width="7" height="7" fill="#161b22" rx="2"/>
<rect x="393" y="223" width="7" height="7" fill="#161b22" rx="2"/>
<rect x="393" y="232" width="7" height="7" fill="#161b22" rx="2"/>
<rect x="393" y="241" width="7" height="7" fill="#161b22" rx="2"/>
<rect x="393" y="250" width="7" height="7" fill="#161b22" rx="2"/>
<rect x="393" y="259" width="7" height="7" fill="#161b22" rx="2"/>
<rect x="393" y="268" width="7" height="7" fill="#161b22" rx="2"/>
<rect x="402" y="214" width="7" height="7" fill="#161b22" rx="2"/>
<rect x="402" y="223" width="7" height="7" fill="#161b22" rx="2"/>
<rect x="402" y="232" width="7" height="7" fill="#161b22" rx="2"/>
<rect x="402" y="241" width="7" height="7" fill="#161b22" rx="2"/>
<rect x="402" y="250" width="7" height="7" fill="#161b22" rx="2"/>
<rect x="402" y="259" width="7" height="7" fill="#161b22" rx="2"/>
<rect x="402" y="268" width="7" height="7" fill="#161b22" rx="2"/>
<rect x="411" y="214" width="7" height="7" fill="#161b22" rx="2"/>
<rect x="411" y="223" width="7" height="7" fill="#161b22" rx="2"/>
<rect x="411" y="232" width="7" height="7" fill="#161b22" rx="2"/>
<rect x="411" y="241" width="7" height="7" fill="#161b22" rx="2"/>
<rect x="411" y="250" width="7" height="7" fill="#161b22" rx="2"/>
<rect x="411" y="259" width="7" height="7" fill="#161b22" rx="2"/>
<rect x="411" y="268" width="7" height="7" fill="#161b22" rx="2"/>
<rect x="420" y="214" width="7" height="7" fill="#161b22" rx="2"/>
<rect x="420" y="223" width="7" height="7" fill="#161b22" rx="2"/>
<rect x="420" y="232" width="7" height="7" fill="#161b22" rx="2"/>
<rect x="420" y="241" width="7" height="7" fill="#161b22" rx="2"/>
<rect x="420" y="250" width="7" height="7" fill="#161b22" rx="2"/>
<rect x="420" y="259" width="7" height="7" fill="#161b22" rx="2"/>
<rect x="420" y="268" width="7" height="7" fill="#161b22" rx="2"/>
<rect x="429" y="214" width="7" height="7" fill="#161b22" rx="2"/>
<rect x="429" y="223" width="7" height="7" fill="#161b22" rx="2"/>
<rect x="429" y="232" width="7" height="7" fill="#161b22" rx="2"/>
<rect x="429" y="241" width="7" height="7" fill="#161b22" rx="2"/>
<rect x="429" y="250" width="7" height="7" fill="#161b22" rx="2"/>
<rect x="429" y="259" width="7" height="7" fill="#161b22" rx="2"/>
<rect x="429" y="268" width="7" height="7" fill="#161b22" rx="2"/>
<rect x="438" y="214" width="7" height="7" fill="#161b22" rx="2"/>
<rect x="438" y="223" width="7" height="7" fill="#161b22" rx="2"/>
<rect x="438" y="232" width="7" height="7" fill="#161b22" rx="2"/>
<rect x="438" y="241" width="7" height="7" fill="#161b22" rx="2"/>
<rect x="438" y="250" width="7" height="7" fill="#161b22" rx="2"/>
<rect x="438" y="259" width="7" height="7" fill="#161b22" rx="2"/>
<rect x="438" y="268" width="7" height="7" fill="#161b22" rx="2"/>
<rect x="447" y="214" width="7" height="7" fill="#161b22" rx="2"/>
<rect x="447" y="223" width="7" height="7" fill="#161b22" rx="2"/>
<rect x="447" y="232" width="7" height="7" fill="#161b22" rx="2"/>
<rect x="447" y="241" width="7" height="7" fill="#161b22" rx="2"/>
<rect x="447" y="250" width="7" height="7" fill="#161b22" rx="2"/>
<rect x="447" y="259" width="7" height="7" fill="#161b22" rx="2"/>
<rect x="447" y="268" width="7" height="7" fill="#161b22" rx="2"/>
<rect x="456" y="214" width="7" height="7" fill="#161b22" rx="2"/>
<rect x="456" y="223" width="7" height="7" fill="#161b22" rx="2"/>
<rect x="456" y="232" width="7" height="7" fill="#161b22" rx="2"/>
<rect x="456" y="241" width="7" height="7" fill="#161b22" rx="2"/>
<rect x="456" y="250" width="7" height="7" fill="#161b22" rx="2"/>
<rect x="456" y="259" width="7" height="7" fill="#161b22" rx="2"/>
<rect x="456" y="268" width="7" height="7" fill="#161b22" rx="2"/>
<rect x="465" y="214" width="7" height="7" fill="#161b22" rx="2"/>
<rect x="465" y="223" width="7" height="7" fill="#161b22" rx="2"/>
<rect x="465" y="232" width="7" height="7" fill="#161b22" rx="2"/>
<rect x="465" y="241" width="7" height="7" fill="#161b22" rx="2"/>
<rect x="465" y="250" width="7" height="7" fill="#161b22" rx="2"/>
<rect x="465" y="259" width="7" height="7" fill="#006d32" rx="2"/>
<rect x="465" y="268" width="7" height="7" fill="#161b22" rx="2"/>
<rect x="474" y="214" width="7" height="7" fill="#161b22" rx="2"/>
<rect x="474" y="223" width="7" height="7" fill="#161b22" rx="2"/>
<rect x="474" y="232" width="7" height="7" fill="#161b22" rx="2"/>
<rect x="474" y="241" width="7" height="7" fill="#161b22" rx="2"/>
<rect x="474" y="250" width="7" height="7" fill="#161b22" rx="2"/>
<rect x="474" y="259" width="7" height="7" fill="#161b22" rx="2"/>
<rect x="474" y="268" width="7" height="7" fill="#161b22" rx="2"/>
<rect x="483" y="214" width="7" height="7" fill="#161b22" rx="2"/>
<rect x="483" y="223" width="7" height="7" fill="#161b22" rx="2"/>
<rect x="483" y="232" width="7" height="7" fill="#161b22" rx="2"/>
<rect x="483" y="241" width="7" height="7" fill="#161b22" rx="2"/>
<rect x="483" y="250" width="7" height="7" fill="#006d32" rx="2"/>
<rect x="483" y="259" width="7" height="7" fill="#39d353" rx="2"/>
<rect x="483" y="268" width="7" height="7" fill="#161b22" rx="2"/>
<rect x="492" y="214" width="7" height="7" fill="#161b22" rx="2"/>
<rect x="492" y="223" width="7" height="7" fill="#161b22" rx="2"/>
<rect x="492" y="232" width="7" height="7" fill="#161b22" rx="2"/>
<text x="383" y="298" font-family="monospace" font-size="9" fill="#8b949e">less</text>
<rect x="411" y="292" width="7" height="7" fill="#161b22" rx="2"/>
<rect x="420" y="292" width="7" height="7" fill="#0e4429" rx="2"/>
<rect x="429" y="292" width="7" height="7" fill="#006d32" rx="2"/>
<rect x="438" y="292" width="7" height="7" fill="#26a641" rx="2"/>
<rect x="447" y="292" width="7" height="7" fill="#39d353" rx="2"/>
<text x="458" y="298" font-family="monospace" font-size="9" fill="#8b949e">more</text>
</svg>